<?xml version="1.0" encoding="UTF-8" standalone="no"?>
<!-- Created with Inkscape (http://www.inkscape.org/) -->

<svg
   xmlns:dc="http://purl.org/dc/elements/1.1/"
   xmlns:cc="http://creativecommons.org/ns#"
   xmlns:rdf="http://www.w3.org/1999/02/22-rdf-syntax-ns#"
   xmlns:svg="http://www.w3.org/2000/svg"
   xmlns="http://www.w3.org/2000/svg"
   xmlns:xlink="http://www.w3.org/1999/xlink"
   xmlns:sodipodi="http://sodipodi.sourceforge.net/DTD/sodipodi-0.dtd"
   xmlns:inkscape="http://www.inkscape.org/namespaces/inkscape"
   width="297mm"
   height="210mm"
   viewBox="0 0 297 210"
   version="1.1"
   id="svg8"
   inkscape:version="0.92.2 (5c3e80d, 2017-08-06)"
   sodipodi:docname="facebbok.svg">
  <defs
     id="defs2">
    <linearGradient
       inkscape:collect="always"
       id="linearGradient867">
      <stop
         style="stop-color:#000000;stop-opacity:1;"
         offset="0"
         id="stop863" />
      <stop
         style="stop-color:#000000;stop-opacity:0;"
         offset="1"
         id="stop865" />
    </linearGradient>
    <linearGradient
       inkscape:collect="always"
       xlink:href="#linearGradient867"
       id="linearGradient869"
       x1="130.61177"
       y1="194.52646"
       x2="252.1804"
       y2="201.55006"
       gradientUnits="userSpaceOnUse" />
  </defs>
  <sodipodi:namedview
     id="base"
     pagecolor="#ffffff"
     bordercolor="#666666"
     borderopacity="1.0"
     inkscape:pageopacity="0.0"
     inkscape:pageshadow="2"
     inkscape:zoom="0.63"
     inkscape:cx="690.20055"
     inkscape:cy="445.09831"
     inkscape:document-units="mm"
     inkscape:current-layer="layer1"
     showgrid="false"
     inkscape:window-width="1366"
     inkscape:window-height="705"
     inkscape:window-x="-8"
     inkscape:window-y="-8"
     inkscape:window-maximized="1" />
  <metadata
     id="metadata5">
    <rdf:RDF>
      <cc:Work
         rdf:about="">
        <dc:format>image/svg+xml</dc:format>
        <dc:type
           rdf:resource="http://purl.org/dc/dcmitype/StillImage" />
        <dc:title></dc:title>
      </cc:Work>
    </rdf:RDF>
  </metadata>
  <g
     inkscape:label="Capa 1"
     inkscape:groupmode="layer"
     id="layer1"
     transform="translate(0,-87)">
    <rect
       style="opacity:1;fill:#5599ff;fill-opacity:1;fill-rule:nonzero;stroke:none;stroke-width:2.86500001;stroke-linecap:butt;stroke-linejoin:round;stroke-miterlimit:4;stroke-dasharray:none;stroke-dashoffset:0;stroke-opacity:1;paint-order:stroke fill markers"
       id="rect841"
       width="209.24245"
       height="143.32706"
       x="43.838631"
       y="111.3548"
       ry="23.724173" />
    <path
       style="fill:url(#linearGradient869);fill-opacity:1;stroke:none;stroke-width:0.26458332px;stroke-linecap:butt;stroke-linejoin:miter;stroke-opacity:1"
       d="m 171.75147,124.74412 80.23265,32.40469 1.25993,75.59523 c -3.17547,7.22107 -0.27359,14.82197 -20.15874,20.99868 l -99.33744,-12.14614 0.1784,-86.39275 z"
       id="path861"
       inkscape:connector-curvature="0"
       sodipodi:nodetypes="ccccccc" />
    <text
       xml:space="preserve"
       style="font-style:normal;font-variant:normal;font-weight:normal;font-stretch:normal;font-size:13.67209721px;line-height:1.25;font-family:Castellar;-inkscape-font-specification:Castellar;letter-spacing:0px;word-spacing:0px;fill:#000000;fill-opacity:1;stroke:none;stroke-width:0.26458332"
       x="92.311234"
       y="280.19327"
       id="text998"
       transform="scale(0.99409438,1.0059407)"><tspan
         sodipodi:role="line"
         id="tspan996"
         x="92.311234"
         y="280.19327"
         style="font-style:normal;font-variant:normal;font-weight:normal;font-stretch:normal;font-size:29.16714096px;font-family:'Arial Rounded MT Bold';-inkscape-font-specification:'Arial Rounded MT Bold, ';stroke-width:0.26458332">facebook</tspan></text>
    <g
       id="g847"
       transform="translate(-226.78572,-35.697751)"
       style="fill:#0066ff;stroke:none">
      <path
         style="fill:#0066ff;fill-opacity:1;stroke-width:1;stroke:none"
         d="m 360.53359,248.03178 v -29.2628 h -5.44345 -5.44345 l 0.0462,-10.06839 0.0462,-10.06838 5.3813,-0.0525 5.38131,-0.0525 0.0831,-8.67676 c 0.0743,-7.75504 0.1233,-8.91573 0.46142,-10.92633 1.50835,-8.96928 5.24633,-14.13999 12.19086,-16.8635 3.78702,-1.4852 7.57634,-1.8618 17.89552,-1.77854 l 7.49365,0.0605 0.05,10.04678 0.05,10.04678 -5.93785,0.0903 c -5.51662,0.0839 -6.02402,0.12146 -7.15256,0.52912 -1.53046,0.55284 -2.47275,1.53621 -2.90672,3.03347 -0.25533,0.88089 -0.318,2.14418 -0.38438,7.74822 l -0.0793,6.69572 h 8.22503 c 4.52377,0 8.22504,0.0622 8.22504,0.13822 0,0.41072 -1.80479,19.276 -1.87999,19.65137 l -0.0894,0.44638 h -7.22263 -7.22262 v 29.2628 29.26279 h -10.88364 -10.88364 z"
         id="path859"
         inkscape:connector-curvature="0" />
      <path
         style="fill:#0066ff;fill-opacity:1;stroke-width:1;stroke:none"
         d="m 360.53359,248.03178 v -29.2628 h -5.44182 -5.44181 V 208.75019 198.7314 h 5.42561 5.42562 l 0.0794,-8.48125 c 0.085,-9.07632 0.18999,-10.42112 1.11902,-14.33174 0.60321,-2.53911 2.1027,-5.8777 3.50378,-7.80111 2.71659,-3.72935 6.68113,-6.07876 12.1017,-7.17156 2.38579,-0.48099 6.83463,-0.69866 14.31823,-0.70058 l 6.91379,-0.002 v 10.09987 10.09986 l -5.93248,0.0845 c -4.8875,0.0697 -6.09239,0.14242 -6.84034,0.41307 -1.66465,0.60237 -2.65735,1.64349 -3.132,3.28474 -0.1344,0.46475 -0.23496,3.14886 -0.2853,7.61563 l -0.0777,6.89793 8.15666,-0.0116 c 4.48615,-0.006 8.18469,0.0196 8.21897,0.0577 0.0343,0.0381 -0.0135,0.8228 -0.10626,1.74373 -0.0927,0.92093 -0.28979,2.96893 -0.43794,4.55111 -0.79913,8.53443 -1.18122,12.46643 -1.26758,13.04426 l -0.0964,0.64478 h -7.21793 -7.21794 v 29.26279 29.2628 h -10.88364 -10.88364 v -29.2628 z"
         id="path857"
         inkscape:connector-curvature="0" />
      <path
         style="fill:#0066ff;fill-opacity:1;stroke-width:1;stroke:none"
         d="m 360.53359,248.03178 v -29.2628 h -5.44182 -5.44181 V 208.75019 198.7314 h 5.44181 5.44182 v -6.71651 c 0,-7.31263 0.17698,-10.6774 0.72883,-13.85714 1.562,-9.00011 6.17624,-14.51115 13.99085,-16.71001 3.07086,-0.86408 5.11054,-1.00596 14.46118,-1.00596 h 8.82267 v 10.01878 10.01879 l -5.39722,0.003 c -5.81638,0.004 -7.17008,0.16668 -8.56005,1.03051 -1.1116,0.69082 -1.70711,1.65094 -2.00994,3.24053 -0.19948,1.0471 -0.26359,2.89809 -0.26594,7.67863 l -0.003,6.29893 h 8.22151 8.22151 l -0.0998,0.54558 c -0.0549,0.30007 -0.18279,1.48298 -0.28417,2.62869 -0.31534,3.56351 -1.41718,15.13317 -1.52568,16.02014 l -0.10315,0.84317 h -7.21509 -7.21509 v 29.2628 29.26279 h -10.88364 -10.88364 z"
         id="path855"
         inkscape:connector-curvature="0" />
      <path
         style="fill:#0066ff;fill-opacity:1;stroke-width:1;stroke:none"
         d="m 360.65392,277.16385 c -0.0662,-0.0736 -0.12033,-13.24254 -0.12033,-29.26434 v -29.13053 h -5.34938 -5.34938 l -0.0478,-10.01604 -0.0478,-10.01604 5.40742,-0.0523 5.40741,-0.0523 -0.0119,-5.95176 c -0.0129,-6.43776 0.19552,-11.14438 0.60886,-13.74909 1.52475,-9.60849 6.19163,-15.33665 14.26691,-17.5113 3.03542,-0.81743 5.42111,-0.97828 14.50938,-0.97828 h 8.60988 v 10.01878 10.01879 h -5.54041 c -6.06883,0 -7.35227,0.16558 -8.67486,1.11916 -0.91251,0.65792 -1.40583,1.48917 -1.74475,2.93996 -0.22212,0.95082 -0.27623,2.45666 -0.27623,7.68768 v 6.50525 h 8.21073 8.21074 l -0.0924,0.44638 c -0.0697,0.33685 -1.87701,19.12652 -1.87701,19.51471 0,0.0421 -3.25144,0.0765 -7.22543,0.0765 h -7.22543 l -0.0452,29.2132 -0.0452,29.2132 -10.71871,0.0511 c -5.89528,0.0281 -10.77285,-0.009 -10.83903,-0.0827 z"
         id="path853"
         inkscape:connector-curvature="0" />
      <path
         style="fill:#0066ff;fill-opacity:1;stroke-width:1;stroke:none"
         d="m 360.71201,247.93258 v -29.1636 h -5.44181 -5.44182 V 208.75019 198.7314 h 5.43036 5.43037 l 0.0683,-8.97723 c 0.0567,-7.45261 0.12035,-9.27244 0.37469,-10.71549 0.91607,-5.19757 2.4073,-8.81307 4.9167,-11.92066 0.79334,-0.98246 3.17753,-2.96989 4.36636,-3.63975 1.30016,-0.73259 4.10113,-1.82529 5.54387,-2.16275 3.08416,-0.72139 5.55088,-0.87374 14.14662,-0.87374 h 8.43146 v 10.01878 10.01879 h -5.67197 c -6.00425,0 -6.85166,0.10046 -8.43789,1.00027 -0.86144,0.48867 -1.67129,1.81788 -1.9324,3.17165 -0.10443,0.54145 -0.191,3.79212 -0.19894,7.46978 l -0.0141,6.51116 8.12762,0.0516 8.12763,0.0516 v 0.49839 c 0,0.27411 -0.1633,2.17033 -0.36288,4.21382 -0.5678,5.8136 -1.21118,12.51259 -1.34289,13.98221 l -0.12,1.33915 -7.24985,-1e-5 h -7.24984 l 0.0458,29.1636 0.0458,29.16361 h -10.7956 -10.79561 z"
         id="path851"
         inkscape:connector-curvature="0" />
      <path
         style="fill:#0066ff;fill-opacity:1;stroke-width:1;stroke:none"
         d="m 360.66858,247.85232 c -0.0252,-16.08412 0.0144,-29.20248 0.088,-29.15189 0.0736,0.0506 0.13381,13.16568 0.13381,29.14466 v 29.0527 h 10.52621 10.5262 l 0.0458,-28.91561 0.0458,-28.91561 0.044,29.0148 0.044,29.01481 h -10.704 -10.70404 z m -10.8402,-39.11829 V 198.7314 h 5.29313 c 2.91123,0 5.24866,0.0495 5.1943,0.1099 -0.0544,0.0605 -2.39613,0.10308 -5.20393,0.0947 l -5.10508,-0.0152 v 9.80784 9.80784 l 4.94321,0.0247 c 2.71876,0.0136 4.9831,0.0691 5.03186,0.12328 0.0488,0.0542 -2.21583,0.0881 -5.03242,0.0753 l -5.12107,-0.0232 z m 33.05575,9.89746 c 0.1736,-0.0503 0.41447,-0.047 0.53526,0.007 0.1208,0.0543 -0.0212,0.0955 -0.31563,0.0915 -0.29439,-0.004 -0.39323,-0.0485 -0.21963,-0.0988 z m 12.58639,0.002 c 0.1288,-0.0573 0.28268,-0.0503 0.34197,0.0157 0.0593,0.0659 -0.0461,0.11282 -0.23417,0.1042 -0.20786,-0.01 -0.25013,-0.0565 -0.1078,-0.11986 z m 0.78242,0.0124 c 0.21388,-0.0709 0.32413,-0.37368 0.37506,-1.03017 l 0.0721,-0.92981 -0.0182,0.99018 c -0.0154,0.83683 -0.0735,0.99637 -0.37506,1.03017 -0.26027,0.0292 -0.27486,0.0128 -0.0539,-0.0604 z m -45.62966,-9.79647 c 0,-4.31007 0.0236,-6.07327 0.0524,-3.91824 0.0288,2.15503 0.0288,5.68144 0,7.83648 -0.0288,2.15503 -0.0524,0.39182 -0.0524,-3.91824 z m 46.23125,6.26246 c 0.0456,-0.75659 0.12171,-1.41872 0.16908,-1.47141 0.13992,-0.15557 0.0786,1.19475 -0.0932,2.05346 -0.12925,0.64596 -0.14336,0.53769 -0.0759,-0.58205 z m 0.30869,-2.8898 c 0,-0.60014 0.0334,-0.84565 0.0743,-0.54558 0.0409,0.30007 0.0409,0.79109 0,1.09116 -0.0409,0.30006 -0.0743,0.0546 -0.0743,-0.54558 z m -0.57464,-0.31412 c 0.009,-0.23112 0.0508,-0.27813 0.1078,-0.11986 0.0515,0.14321 0.0452,0.31432 -0.0141,0.38025 -0.0593,0.0659 -0.10146,-0.0513 -0.0937,-0.26039 z m 0.70417,-1.17382 c -0.0496,-0.43099 -0.0296,-0.68217 0.17345,-2.18231 0.10525,-0.7774 0.1353,-0.84176 0.13891,-0.29759 0.006,0.92101 -0.25405,2.98655 -0.31236,2.4799 z M 396.767,207.7417 c 0.009,-0.23112 0.0508,-0.27813 0.1078,-0.11986 0.0515,0.14321 0.0452,0.31432 -0.0141,0.38025 -0.0593,0.0659 -0.10146,-0.0513 -0.0937,-0.26039 z m 0.35684,-0.39678 c 0.009,-0.23112 0.0508,-0.27813 0.1078,-0.11987 0.0515,0.14322 0.0452,0.31433 -0.0141,0.38025 -0.0593,0.0659 -0.10146,-0.0513 -0.0937,-0.26038 z m 0.56065,-0.67784 c -0.005,-0.38191 0.0543,-1.14076 0.13074,-1.68633 0.11241,-0.80248 0.14052,-0.85933 0.14716,-0.29759 0.005,0.3819 -0.0543,1.14075 -0.13074,1.68633 -0.11241,0.80248 -0.14052,0.85932 -0.14716,0.29759 z m 0.36596,-3.96784 c 0,-0.49102 0.0348,-0.69189 0.0773,-0.44638 0.0425,0.24551 0.0425,0.64725 0,0.89276 -0.0425,0.24551 -0.0773,0.0446 -0.0773,-0.44638 z m 0.14237,-1.80206 c 0.007,-0.48193 0.0831,-1.05478 0.16936,-1.27301 0.0996,-0.25204 0.11854,0.0375 0.0519,0.79356 -0.12683,1.43866 -0.23844,1.68053 -0.22125,0.47945 z m -0.096,-1.77938 c 0.0773,-0.13904 -2.43043,-0.19601 -7.85507,-0.17845 -4.38272,0.0142 -8.01588,-0.0268 -8.07369,-0.0911 -0.0578,-0.0643 3.60158,-0.11687 8.13197,-0.11687 7.48611,0 8.87437,0.0824 7.96017,0.47248 -0.16477,0.0703 -0.23093,0.0354 -0.16338,-0.0861 z m -37.38483,-8.21622 c 0.0491,-4.40495 0.12936,-8.05362 0.17842,-8.10815 0.0491,-0.0545 0.0649,3.48688 0.0352,7.86981 -0.0297,4.38293 -0.10998,8.0316 -0.17842,8.10816 -0.0684,0.0765 -0.0843,-3.46487 -0.0352,-7.86982 z m 21.31062,2.07646 c 0,-3.10979 0.0247,-4.38198 0.0548,-2.82709 0.0301,1.5549 0.0301,4.09928 0,5.65417 -0.0302,1.5549 -0.0548,0.28271 -0.0548,-2.82708 z m 0.14121,-7.3405 c 0,-0.3819 0.0367,-0.53814 0.0816,-0.34719 0.0449,0.19096 0.0449,0.50342 0,0.69438 -0.0449,0.19095 -0.0816,0.0347 -0.0816,-0.34719 z m 0.15112,-1.20203 c -0.008,-0.27921 0.10524,-0.68096 0.25109,-0.89276 0.24623,-0.35759 0.2536,-0.34258 0.1032,0.21007 -0.30564,1.12302 -0.34023,1.18968 -0.35429,0.68269 z m 0.58064,-1.66592 c 0,-0.15888 0.0682,-0.24199 0.1516,-0.18469 0.0834,0.0573 0.1054,0.18729 0.0489,0.28886 -0.14427,0.25957 -0.20054,0.23035 -0.20054,-0.10417 z m 0.20636,-0.50795 c -0.0616,-0.11089 -0.18681,-0.15026 -0.27816,-0.0875 -0.0914,0.0628 -0.16609,0.0202 -0.16609,-0.0947 0,-0.11487 0.18065,-0.176 0.40145,-0.13584 0.22079,0.0401 0.52188,-0.0258 0.66907,-0.14662 0.1472,-0.1208 0.11468,-0.0203 -0.0723,0.22333 -0.38928,0.50734 -0.40287,0.51326 -0.55401,0.24133 z m -22.09035,-1.54052 c 0.0575,-0.6854 0.16815,-1.53352 0.24583,-1.88472 0.0858,-0.38789 0.10039,-0.0934 0.0372,0.75019 -0.0572,0.76381 -0.16782,1.61193 -0.24582,1.88472 -0.0821,0.28727 -0.0978,-0.0284 -0.0372,-0.75019 z m 23.42924,0.56689 c 0.51596,-0.44922 1.82796,-0.90002 2.17315,-0.74668 0.13012,0.0578 0.0359,0.11301 -0.20946,0.12269 -0.24533,0.01 -0.88764,0.24121 -1.42737,0.5145 -0.79044,0.40026 -0.89476,0.42156 -0.53632,0.10949 z m -0.81967,-0.29162 c 0,-0.28951 0.10989,-0.43201 0.33315,-0.43201 0.30044,0 0.30477,0.0231 0.0441,0.23503 -0.20969,0.1705 -0.22771,0.25779 -0.0656,0.31787 0.16078,0.0596 0.14842,0.11484 -0.0441,0.19697 -0.18728,0.0799 -0.26753,-0.0154 -0.26753,-0.31786 z m 3.63085,-0.65705 c 0.2208,-0.0473 0.5821,-0.0473 0.8029,0 0.22079,0.0473 0.0401,0.086 -0.40145,0.086 -0.44159,0 -0.62224,-0.0387 -0.40145,-0.086 z m 4.10367,-0.20658 c 1.20211,-0.0343 3.16919,-0.0343 4.3713,0 1.2021,0.0343 0.21856,0.0624 -2.18565,0.0624 -2.40421,0 -3.38776,-0.0281 -2.18565,-0.0624 z m 7.003,-9.67011 v -9.81831 l -7.80589,-0.0538 -7.80589,-0.0538 7.8951,-0.0475 7.8951,-0.0474 v 9.91959 c 0,5.45577 -0.0402,9.91959 -0.0892,9.91959 -0.0491,0 -0.0892,-4.41824 -0.0892,-9.81831 z m -36.91038,7.14002 c -0.0103,-0.10912 0.10306,-0.64477 0.25195,-1.19035 0.14889,-0.54558 0.35402,-1.33576 0.45585,-1.75596 0.10182,-0.42019 0.22569,-0.71889 0.27526,-0.66377 0.0496,0.0551 -0.08,0.73532 -0.28788,1.51157 -0.2079,0.77625 -0.32162,1.51281 -0.25271,1.63679 0.0738,0.13274 0.0462,0.17105 -0.0672,0.0932 -0.10587,-0.0727 -0.22939,0.0251 -0.2745,0.21734 -0.0451,0.19229 -0.0905,0.26034 -0.10079,0.15122 z m 1.46397,-3.48985 c 0.0474,-0.17357 0.0145,-0.4414 -0.073,-0.59517 -0.13672,-0.24015 -0.15956,-0.23994 -0.16191,0.001 -0.001,0.15457 -0.0459,0.23307 -0.0986,0.17443 -0.15958,-0.17744 0.31351,-1.14634 0.49787,-1.01965 0.10012,0.0688 0.0755,0.18367 -0.0592,0.27625 -0.1862,0.12796 -0.18715,0.21668 -0.005,0.46079 0.17287,0.23161 0.17747,0.38597 0.0197,0.6599 -0.14909,0.2588 -0.18219,0.2704 -0.11982,0.042 z m 0.21101,-1.76283 c -0.0592,-0.10653 0.0215,-0.44131 0.17925,-0.74397 0.1578,-0.30265 0.23004,-0.37173 0.16054,-0.1535 -0.0695,0.21823 -0.13195,0.55302 -0.1388,0.74397 -0.0143,0.39762 -0.0501,0.425 -0.20099,0.1535 z m 0.62186,-1.62043 c 0.1472,-0.14874 0.29344,-0.40402 0.32498,-0.5673 0.101,-0.52283 0.32547,-0.62117 0.5836,-0.25568 0.23158,0.32788 0.22559,0.33323 -0.077,0.0687 -0.29368,-0.25682 -0.32175,-0.24944 -0.26763,0.0704 0.0367,0.21656 -0.1152,0.47484 -0.38558,0.65582 -0.29958,0.20053 -0.35817,0.20977 -0.17842,0.0281 z m 1.14854,-2.02057 c 0.5182,-0.75545 0.71447,-0.86966 0.90509,-0.5267 0.0616,0.1109 0.18681,0.15027 0.27816,0.0875 0.23392,-0.16075 0.20728,-0.49768 -0.0346,-0.43791 -0.5558,0.13734 -0.22337,-0.48512 0.7915,-1.48202 0.79689,-0.78278 1.20604,-1.06223 1.3801,-0.94261 0.14628,0.10053 0.34278,0.082 0.48073,-0.0453 0.25716,-0.23731 0.45215,-0.10624 0.51157,0.3439 0.0213,0.16103 -0.0359,0.24155 -0.12703,0.17894 -0.0911,-0.0626 -0.11303,-0.20854 -0.0487,-0.32427 0.0679,-0.12223 0.0131,-0.16846 -0.1309,-0.11029 -0.13632,0.0551 -0.22385,0.21371 -0.19451,0.35252 0.0372,0.17611 -0.0813,0.15429 -0.39214,-0.0722 -0.27249,-0.19854 -0.48784,-0.24839 -0.55454,-0.12839 -0.06,0.1079 -0.004,0.19755 0.12451,0.19922 0.17447,0.002 0.168,0.0491 -0.0256,0.1853 -0.14252,0.10025 -0.31244,0.14563 -0.37761,0.10084 -0.0652,-0.0448 -0.26653,0.10047 -0.44747,0.32279 -0.28301,0.34773 -0.29258,0.43207 -0.0684,0.60349 0.19342,0.14794 0.14562,0.16773 -0.18552,0.0768 -0.42911,-0.11782 -0.43289,-0.11078 -0.0997,0.18539 0.19049,0.16932 0.25544,0.30786 0.14435,0.30786 -0.1111,0 -0.25243,-0.0907 -0.31406,-0.20163 -0.0616,-0.11089 -0.19071,-0.14758 -0.28683,-0.0815 -0.11295,0.0776 -0.11008,0.20675 0.008,0.36512 0.21044,0.28195 0.11202,1.07836 -0.17195,1.39142 -0.13812,0.15227 -0.16242,0.12307 -0.0853,-0.10245 0.1251,-0.36567 -0.33703,-0.87241 -0.61894,-0.67868 -0.10503,0.0722 -0.16876,0.27874 -0.14163,0.45901 0.0271,0.18028 -0.031,0.33115 -0.12908,0.33527 -0.0981,0.004 -0.29335,0.0884 -0.43382,0.1872 -0.14047,0.0988 -0.0306,-0.14804 0.2442,-0.54862 z m 2.41987,-1.81948 c -0.12803,-0.17153 -0.14537,-0.29759 -0.0409,-0.29759 0.0996,0 0.22739,0.13392 0.28388,0.29759 0.0565,0.16367 0.0749,0.29759 0.0409,0.29759 -0.034,0 -0.16171,-0.13392 -0.28387,-0.29759 z m 1.15973,-2.00477 c 0.64771,-0.55509 1.0813,-0.71896 0.53526,-0.2023 -0.2944,0.27856 -0.61555,0.50684 -0.71368,0.50729 -0.0981,4e-4 -0.0178,-0.13679 0.17842,-0.30499 z m 1.15973,-0.75875 c 0,-0.0546 0.16058,-0.19476 0.35684,-0.31155 0.19626,-0.1168 0.35684,-0.16772 0.35684,-0.11316 0,0.0546 -0.16058,0.19476 -0.35684,0.31155 -0.19626,0.11679 -0.35684,0.16771 -0.35684,0.11316 z m 0.90619,-0.44864 c -0.0222,-0.37284 0.27332,-0.47661 0.72772,-0.25552 0.40463,0.19687 0.40279,0.20005 -0.058,0.0999 -0.29023,-0.0631 -0.51096,-0.007 -0.56578,0.14423 -0.065,0.17893 -0.0938,0.18209 -0.10397,0.0114 z m 0.69959,-0.53424 c 0,-0.0419 0.44638,-0.27761 0.99196,-0.52383 0.77076,-0.34784 1.03931,-0.3946 1.20433,-0.20968 0.16459,0.18444 0.14917,0.21125 -0.0685,0.11917 -0.15451,-0.0653 -0.66297,0.0633 -1.12992,0.28584 -0.87715,0.41808 -0.99782,0.4578 -0.99782,0.3285 z m 3.4792,-1.31259 c -0.0607,-0.10912 -0.0252,-0.19839 0.0787,-0.19839 0.10392,0 0.18895,0.0893 0.18895,0.19839 0,0.10911 -0.0354,0.19839 -0.0787,0.19839 -0.0433,0 -0.1283,-0.0893 -0.18895,-0.19839 z m 1.3047,0.0629 c 0.12879,-0.0573 0.28268,-0.0503 0.34197,0.0157 0.0593,0.0659 -0.0461,0.11281 -0.23418,0.1042 -0.20785,-0.01 -0.25012,-0.0565 -0.10779,-0.11986 z m -0.68023,-0.26209 c 0,-0.27504 4.46189,-1.07211 5.2634,-0.94025 0.45833,0.0754 0.43268,0.0924 -0.17842,0.11805 -0.64156,0.027 -2.19845,0.31345 -4.32669,0.79615 -0.41706,0.0946 -0.75829,0.10632 -0.75829,0.026 z"
         id="path849"
         inkscape:connector-curvature="0" />
    </g>
  </g>
</svg>
