<?xml version="1.0" encoding="UTF-8" standalone="no"?>
<!-- Created with Inkscape (http://www.inkscape.org/) -->

<svg
   xmlns:dc="http://purl.org/dc/elements/1.1/"
   xmlns:cc="http://creativecommons.org/ns#"
   xmlns:rdf="http://www.w3.org/1999/02/22-rdf-syntax-ns#"
   xmlns:svg="http://www.w3.org/2000/svg"
   xmlns="http://www.w3.org/2000/svg"
   xmlns:xlink="http://www.w3.org/1999/xlink"
   xmlns:sodipodi="http://sodipodi.sourceforge.net/DTD/sodipodi-0.dtd"
   xmlns:inkscape="http://www.inkscape.org/namespaces/inkscape"
   width="297mm"
   height="210mm"
   viewBox="0 0 297 210"
   version="1.1"
   id="svg8"
   inkscape:version="0.92.2 (5c3e80d, 2017-08-06)"
   sodipodi:docname="gmail.svg">
  <defs
     id="defs2">
    <linearGradient
       inkscape:collect="always"
       id="linearGradient1132">
      <stop
         style="stop-color:#000000;stop-opacity:1;"
         offset="0"
         id="stop1128" />
      <stop
         style="stop-color:#000000;stop-opacity:0;"
         offset="1"
         id="stop1130" />
    </linearGradient>
    <inkscape:path-effect
       effect="spiro"
       id="path-effect1112"
       is_visible="true" />
    <inkscape:path-effect
       effect="spiro"
       id="path-effect1108"
       is_visible="true" />
    <inkscape:path-effect
       effect="spiro"
       id="path-effect1102"
       is_visible="true" />
    <inkscape:path-effect
       effect="spiro"
       id="path-effect1096"
       is_visible="true" />
    <inkscape:path-effect
       effect="spiro"
       id="path-effect1055"
       is_visible="true" />
    <inkscape:path-effect
       effect="spiro"
       id="path-effect1051"
       is_visible="true" />
    <inkscape:path-effect
       effect="spiro"
       id="path-effect1045"
       is_visible="true" />
    <linearGradient
       inkscape:collect="always"
       xlink:href="#linearGradient1132"
       id="linearGradient1134"
       x1="84.773906"
       y1="185.15806"
       x2="253.54808"
       y2="185.15806"
       gradientUnits="userSpaceOnUse" />
  </defs>
  <sodipodi:namedview
     id="base"
     pagecolor="#ffffff"
     bordercolor="#666666"
     borderopacity="1.0"
     inkscape:pageopacity="0.0"
     inkscape:pageshadow="2"
     inkscape:zoom="0.525169"
     inkscape:cx="755.66371"
     inkscape:cy="417.95756"
     inkscape:document-units="mm"
     inkscape:current-layer="layer1"
     showgrid="false"
     inkscape:window-width="1366"
     inkscape:window-height="705"
     inkscape:window-x="-8"
     inkscape:window-y="-8"
     inkscape:window-maximized="1" />
  <metadata
     id="metadata5">
    <rdf:RDF>
      <cc:Work
         rdf:about="">
        <dc:format>image/svg+xml</dc:format>
        <dc:type
           rdf:resource="http://purl.org/dc/dcmitype/StillImage" />
        <dc:title></dc:title>
      </cc:Work>
    </rdf:RDF>
  </metadata>
  <g
     inkscape:label="Capa 1"
     inkscape:groupmode="layer"
     id="layer1"
     transform="translate(0,-87)">
    <rect
       style="opacity:1;fill:#c83737;fill-opacity:1;fill-rule:nonzero;stroke:none;stroke-width:2.86500001;stroke-linecap:butt;stroke-linejoin:round;stroke-miterlimit:4;stroke-dasharray:none;stroke-dashoffset:0;stroke-opacity:1;paint-order:stroke fill markers"
       id="rect841"
       width="209.24245"
       height="143.32706"
       x="43.838631"
       y="111.3548"
       ry="23.724173" />
    <path
       style="fill:url(#linearGradient1134);fill-opacity:1;stroke:none;stroke-width:0.26458332px;stroke-linecap:butt;stroke-linejoin:miter;stroke-opacity:1"
       d="m 85.143225,221.42909 115.875395,-84.63942 52.39584,27.20553 -1.00762,69.52524 C 195.21303,228.73802 65.738555,222.24189 85.143225,221.42909 Z"
       id="path1126"
       inkscape:connector-curvature="0"
       sodipodi:nodetypes="ccccc" />
    <text
       xml:space="preserve"
       style="font-style:normal;font-variant:normal;font-weight:normal;font-stretch:normal;font-size:13.67209721px;line-height:1.25;font-family:Castellar;-inkscape-font-specification:Castellar;letter-spacing:0px;word-spacing:0px;fill:#000000;fill-opacity:1;stroke:none;stroke-width:0.26458332"
       x="102.87295"
       y="278.52328"
       id="text998"
       transform="scale(0.99409438,1.0059407)"><tspan
         sodipodi:role="line"
         id="tspan996"
         x="102.87295"
         y="278.52328"
         style="font-style:normal;font-variant:normal;font-weight:normal;font-stretch:normal;font-size:29.16714096px;font-family:'Arial Rounded MT Bold';-inkscape-font-specification:'Arial Rounded MT Bold, ';stroke-width:0.26458332">Gmail</tspan></text>
    <path
       style="opacity:1;fill:#ff0000;fill-opacity:1;fill-rule:nonzero;stroke:none;stroke-width:2.86500001;stroke-linecap:butt;stroke-linejoin:round;stroke-miterlimit:4;stroke-dasharray:none;stroke-dashoffset:0;stroke-opacity:1;paint-order:stroke fill markers"
       d="m 90.138572,134.03554 c -5.212967,0 -9.409672,4.40859 -9.409672,9.88473 v 70.25209 c 0,5.47615 4.196705,9.88473 9.409672,9.88473 h 0.07426 c 5.212967,0 9.409672,-4.40858 9.409672,-9.88473 v -56.91377 l 44.846276,19.66132 c 2.15277,0.94381 4.37275,0.8956 6.26297,0.0551 0.0518,-0.0203 0.10373,-0.0383 0.15541,-0.0597 l 41.47285,-17.18176 v 55.00529 c 0,5.26055 4.03139,9.49548 9.03912,9.49548 h 0.81502 c 5.00774,0 9.03942,-4.23493 9.03942,-9.49548 V 147.2523 c 0,-0.73905 -0.0824,-1.45667 -0.23311,-2.14635 -0.0279,-0.88024 -0.17222,-1.76643 -0.4465,-2.63428 -1.50426,-4.75933 -6.29032,-7.10963 -10.73122,-5.26978 l -51.67607,21.40929 -50.459789,-22.12261 c -0.660229,-0.28946 -1.326832,-0.48319 -1.988398,-0.5921 -1.546287,-1.17054 -3.445806,-1.86096 -5.505651,-1.86096 z"
       id="rect1071"
       inkscape:connector-curvature="0" />
    <path
       style="opacity:1;fill:#e3dbdb;fill-opacity:1;fill-rule:nonzero;stroke:none;stroke-width:2.86500001;stroke-linecap:butt;stroke-linejoin:round;stroke-miterlimit:4;stroke-dasharray:none;stroke-dashoffset:0;stroke-opacity:1;paint-order:stroke fill markers"
       d="m 122.22746,147.14365 c -14.35929,-6.25655 -26.262112,-11.37634 -26.450754,-11.37729 -0.483537,-0.003 -2.449962,-1.23755 -2.449962,-1.53882 0,-0.16025 1.500901,-0.19633 4.189389,-0.10073 5.016627,0.17838 98.897627,2.39407 101.907127,2.40512 1.49882,0.005 1.98155,0.0791 1.68821,0.2575 -0.36892,0.22431 -52.6679,21.78733 -52.74443,21.74668 -0.0175,-0.009 -11.7803,-5.1359 -26.13958,-11.39246 z"
       id="path1098"
       inkscape:connector-curvature="0" />
    <path
       style="opacity:1;fill:#e3dbdb;fill-opacity:1;fill-rule:nonzero;stroke:none;stroke-width:2.86500001;stroke-linecap:butt;stroke-linejoin:round;stroke-miterlimit:4;stroke-dasharray:none;stroke-dashoffset:0;stroke-opacity:1;paint-order:stroke fill markers"
       d="m 103.79233,223.62851 c -5.15004,-0.0377 -9.363707,-0.16127 -9.363707,-0.27459 0,-0.11333 0.564975,-0.61481 1.25552,-1.11442 1.489497,-1.07765 2.821712,-3.10177 3.535988,-4.93145 l 0.576227,-1.13527 -0.356377,-29.47264 c 0.03599,-16.16123 -1.121044,-31.64354 0.654279,-29.29544 0.0572,0.0756 10.36861,4.48279 22.83699,9.96175 l 22.66977,9.96175 2.26638,-0.014 2.26638,-0.014 21.1131,-8.78329 21.11308,-8.78328 0.11929,28.7208 c 0.11316,27.24803 0.14187,28.77222 0.55986,29.72325 0.79377,1.80602 2.24014,3.56243 3.72813,4.52723 0.79068,0.51267 1.4376,0.97249 1.4376,1.02181 0,0.0968 -78.99689,0.0146 -94.41251,-0.0982 z"
       id="path1104"
       inkscape:connector-curvature="0"
       sodipodi:nodetypes="csccccsscccccsccscc" />
    <path
       style="fill:none;stroke:none;stroke-width:0.26458332px;stroke-linecap:butt;stroke-linejoin:miter;stroke-opacity:1"
       d="M 99.796358,216.17278 150.13378,177.30015"
       id="path1106"
       inkscape:connector-curvature="0"
       inkscape:path-effect="#path-effect1108"
       inkscape:original-d="M 99.796358,216.17278 150.13378,177.30015"
       sodipodi:nodetypes="cc" />
    <path
       style="fill:#ac9393;stroke:none;stroke-width:0.26458332px;stroke-linecap:butt;stroke-linejoin:miter;stroke-opacity:1"
       d="m 99.622467,157.25859 39.774763,28.58445"
       id="path1110"
       inkscape:connector-curvature="0"
       inkscape:path-effect="#path-effect1112"
       inkscape:original-d="m 99.622467,157.25859 39.774763,28.58445"
       sodipodi:nodetypes="cc" />
    <path
       style="opacity:1;fill:#ac9393;fill-opacity:1;fill-rule:nonzero;stroke:none;stroke-width:2.86500001;stroke-linecap:butt;stroke-linejoin:round;stroke-miterlimit:4;stroke-dasharray:none;stroke-dashoffset:0;stroke-opacity:1;paint-order:stroke fill markers"
       d="m 120.60508,172.18379 c -10.24471,-7.36025 -18.80136,-13.52431 -19.01479,-13.69788 -0.21344,-0.17357 -0.35257,-0.35417 -0.30923,-0.40132 0.0874,-0.0951 6.35271,2.61633 29.01553,12.55687 l 15.25368,6.69068 2.1442,-0.0206 c 1.87298,-0.0181 2.11967,0.004 1.95019,0.17577 -0.10672,0.10802 -2.43506,1.92276 -5.17409,4.03274 -2.73904,2.10998 -5.03827,3.88352 -5.10942,3.9412 -0.0727,0.0589 -8.29871,-5.76438 -18.75607,-13.27742 z"
       id="path1118"
       inkscape:connector-curvature="0" />
    <path
       style="opacity:1;fill:#916f6f;fill-opacity:1;fill-rule:nonzero;stroke:none;stroke-width:2.86500001;stroke-linecap:butt;stroke-linejoin:round;stroke-miterlimit:4;stroke-dasharray:none;stroke-dashoffset:0;stroke-opacity:1;paint-order:stroke fill markers"
       d="m 99.713752,215.52509 c -0.0067,-3.96822 -0.167038,-21.19452 -0.291869,-31.42964 -0.184487,-15.12603 -0.205528,-25.06176 -0.055,-25.98757 0.05769,-0.355 0.155837,-0.64544 0.218058,-0.64544 0.151506,0 39.248929,28.09973 39.294419,28.24131 0.0278,0.0866 -38.2812,29.78742 -38.990205,30.22898 -0.133888,0.0834 -0.174699,-0.0114 -0.175405,-0.40764 z"
       id="path1120"
       inkscape:connector-curvature="0" />
    <path
       style="opacity:1;fill:#ac9393;fill-opacity:1;fill-rule:nonzero;stroke:none;stroke-width:2.86500001;stroke-linecap:butt;stroke-linejoin:round;stroke-miterlimit:4;stroke-dasharray:none;stroke-dashoffset:0;stroke-opacity:1;paint-order:stroke fill markers"
       d="m 137.75519,184.3693 c -0.85975,-0.59673 -1.56493,-1.04005 -1.5671,-0.98515 -0.002,0.0549 -0.064,-0.009 -0.1373,-0.14082 -0.0733,-0.13237 -0.1819,-0.20915 -0.24121,-0.17064 -0.0593,0.0385 -0.14265,-0.0252 -0.18516,-0.14163 -0.0425,-0.11642 -0.12985,-0.17757 -0.19404,-0.13589 -0.0642,0.0417 -0.15151,-0.0195 -0.19403,-0.13588 -0.0425,-0.11642 -0.12985,-0.17756 -0.19404,-0.13589 -0.0642,0.0417 -0.1515,-0.0195 -0.19401,-0.13588 -0.0426,-0.11641 -0.12984,-0.17755 -0.19404,-0.13588 -0.0642,0.0416 -0.15149,-0.0195 -0.19403,-0.13589 -0.0426,-0.1164 -0.12983,-0.17755 -0.19402,-0.13588 -0.0642,0.0417 -0.15009,-0.0156 -0.19089,-0.12726 -0.0408,-0.11168 -0.16331,-0.20305 -0.27226,-0.20305 -0.10894,0 -0.19808,-0.0611 -0.19808,-0.13588 0,-0.0747 -0.0873,-0.13589 -0.19402,-0.13589 -0.10672,0 -0.19405,-0.0611 -0.19405,-0.13588 0,-0.0747 -0.0811,-0.13588 -0.18018,-0.13588 -0.0991,0 -0.21512,-0.0956 -0.2578,-0.21244 -0.0426,-0.11684 -0.13011,-0.17834 -0.1943,-0.13666 -0.0642,0.0416 -0.1515,-0.0195 -0.19404,-0.13588 -0.0425,-0.11641 -0.12983,-0.17756 -0.19402,-0.13588 -0.0642,0.0416 -0.15151,-0.0195 -0.19402,-0.13589 -0.0426,-0.11641 -0.12985,-0.17756 -0.19404,-0.13588 -0.0642,0.0417 -0.15008,-0.0156 -0.19088,-0.12727 -0.0408,-0.11167 -0.1633,-0.20304 -0.27226,-0.20304 -0.10895,0 -0.1981,-0.0611 -0.1981,-0.13588 0,-0.0747 -0.0873,-0.13589 -0.19401,-0.13589 -0.10673,0 -0.19403,-0.0611 -0.19403,-0.13588 0,-0.0747 -0.0873,-0.13589 -0.19404,-0.13589 -0.1067,0 -0.19402,-0.0611 -0.19402,-0.13588 0,-0.0747 -0.0873,-0.13588 -0.19403,-0.13588 -0.10671,0 -0.19403,-0.0611 -0.19403,-0.13589 0,-0.0747 -0.0553,-0.13588 -0.12273,-0.13588 -0.16099,0 -26.05802,-18.61185 -26.11422,-18.76793 -0.0237,-0.0658 -0.12558,-0.11976 -0.22636,-0.11976 -0.1008,0 -0.18326,-0.0611 -0.18326,-0.13589 0,-0.0747 -0.0873,-0.13588 -0.19402,-0.13588 -0.10672,0 -0.19403,-0.0611 -0.19403,-0.13588 0,-0.0747 -0.0873,-0.13589 -0.19403,-0.13589 -0.10673,0 -0.19402,-0.0611 -0.19402,-0.13588 0,-0.0747 -0.0624,-0.13588 -0.1386,-0.13588 -0.0762,0 -0.21973,-0.0764 -0.3189,-0.16985 -0.0992,-0.0934 -0.26962,-0.24871 -0.3788,-0.34507 -0.40282,-0.35551 -0.17953,-0.42435 0.48057,-0.14813 0.37351,0.15629 0.73731,0.29812 0.80845,0.31517 0.0711,0.017 0.30398,0.10993 0.51742,0.20637 0.21342,0.0964 0.50447,0.2207 0.64676,0.27613 0.14229,0.0554 0.40422,0.16613 0.58207,0.24601 0.17786,0.0799 2.79725,1.214 5.82086,2.5203 3.02361,1.30629 12.12837,5.28484 20.2328,8.84121 l 14.73533,6.46615 h 2.02657 c 1.11462,0 2.06464,0.04 2.11118,0.0889 0.0465,0.0489 -0.1477,0.26836 -0.43166,0.48772 -0.28395,0.21937 -0.47796,0.46398 -0.43112,0.54359 0.0513,0.0872 0.0236,0.10475 -0.0699,0.0441 -0.19355,-0.12566 -0.55859,0.1748 -0.44564,0.36681 0.0485,0.0824 0.0206,0.10079 -0.0669,0.0439 -0.19633,-0.12746 -0.95355,0.43989 -0.84143,0.63046 0.0524,0.089 0.0253,0.10697 -0.0688,0.0458 -0.19356,-0.12566 -0.55862,0.1748 -0.44565,0.3668 0.0479,0.0815 0.0208,0.10091 -0.0641,0.0458 -0.19518,-0.12671 -3.02547,2.0696 -2.91311,2.26059 0.0506,0.086 0.0241,0.10537 -0.0648,0.0475 -0.19634,-0.12746 -0.95354,0.4399 -0.84144,0.63046 0.0523,0.089 0.0253,0.10697 -0.0688,0.0458 -0.19357,-0.12566 -0.55861,0.1748 -0.44565,0.36681 0.0494,0.084 0.0203,0.1006 -0.0717,0.0409 -0.19356,-0.12566 -0.55861,0.1748 -0.44565,0.3668 0.0485,0.0824 0.0206,0.1008 -0.067,0.0439 -0.19634,-0.12746 -0.95354,0.43989 -0.84144,0.63046 0.0524,0.089 0.0253,0.10697 -0.0688,0.0458 -0.19357,-0.12567 -0.5586,0.17479 -0.44564,0.3668 0.0494,0.084 0.0203,0.1006 -0.0717,0.0409 -0.18066,-0.11729 -0.5621,0.16885 -0.45891,0.34425 0.0384,0.0654 -0.0146,0.0849 -0.11769,0.0433 -0.10322,-0.0417 -0.22609,-0.0103 -0.27306,0.0695 -0.047,0.0798 -0.13525,0.14514 -0.19617,0.14514 -0.061,0 -0.8142,-0.48824 -1.67395,-1.08498 z"
       id="path1122"
       inkscape:connector-curvature="0" />
    <path
       style="opacity:1;fill:#c8b7b7;fill-opacity:1;fill-rule:nonzero;stroke:none;stroke-width:2.86500001;stroke-linecap:butt;stroke-linejoin:round;stroke-miterlimit:4;stroke-dasharray:none;stroke-dashoffset:0;stroke-opacity:1;paint-order:stroke fill markers"
       d="m 99.6666,207.02774 c -0.04978,-4.87763 -0.145417,-13.51562 -0.212517,-19.19551 -0.138815,-11.75272 -0.166163,-29.18142 -0.04676,-29.80857 0.06374,-0.33458 0.140346,-0.41432 0.378326,-0.39364 0.164136,0.0143 0.270101,0.0741 0.235451,0.13301 -0.05903,0.10037 0.14254,0.16353 0.38229,0.11978 0.0586,-0.0107 0.0698,0.0432 0.0247,0.11979 -0.0749,0.12736 0.0992,0.20018 0.36335,0.15197 0.0586,-0.0107 0.0698,0.0432 0.0247,0.1198 -0.0749,0.12735 0.0992,0.20017 0.36336,0.15197 0.0586,-0.0107 0.0698,0.0432 0.0247,0.11979 -0.0749,0.12736 0.0992,0.20018 0.36336,0.15198 0.0586,-0.0107 0.0735,0.0368 0.033,0.10555 -0.07,0.11901 0.11289,0.24887 0.36608,0.25989 0.0647,0.003 0.17019,0.10361 0.23432,0.22399 0.0641,0.12037 0.16512,0.18734 0.22444,0.14884 0.0593,-0.0385 0.14263,0.0252 0.18516,0.14163 0.0426,0.11641 0.12983,0.17756 0.19402,0.13588 0.0642,-0.0416 0.15151,0.0195 0.19404,0.13589 0.0426,0.11641 0.12983,0.17755 0.19402,0.13588 0.0642,-0.0417 0.1515,0.0195 0.19404,0.13588 0.0425,0.11641 0.12983,0.17756 0.19402,0.13589 0.0642,-0.0417 0.15151,0.0195 0.19403,0.13588 0.0426,0.11641 0.12984,0.17756 0.19403,0.13588 0.0642,-0.0417 0.15262,0.0226 0.19652,0.14268 0.0492,0.13476 0.17462,0.19241 0.32725,0.15049 0.17322,-0.0476 0.2268,-0.0114 0.17861,0.12046 -0.0399,0.10906 0.013,0.18845 0.12519,0.18845 0.10672,0 0.22895,0.0956 0.27163,0.21243 0.0427,0.11684 0.13013,0.17834 0.19432,0.13667 0.0642,-0.0417 0.15151,0.0195 0.19402,0.13588 0.0426,0.11641 0.12984,0.17756 0.19404,0.13589 0.0642,-0.0417 0.15149,0.0195 0.19402,0.13587 0.0425,0.11642 0.12983,0.17757 0.19402,0.13589 0.0642,-0.0417 0.15151,0.0195 0.19404,0.13588 0.0425,0.11642 0.12984,0.17757 0.19403,0.13588 0.0642,-0.0416 0.15009,0.0156 0.19089,0.12728 0.0408,0.11167 0.16331,0.20304 0.27225,0.20304 0.10895,0 0.19809,0.0611 0.19809,0.13588 0,0.0748 0.0873,0.13588 0.19402,0.13588 0.10672,0 0.19404,0.0611 0.19404,0.13589 0,0.0747 0.0811,0.13588 0.18018,0.13588 0.0991,0 0.21511,0.0956 0.25781,0.21244 0.0426,0.11684 0.13011,0.17833 0.1943,0.13666 0.0642,-0.0417 0.1515,0.0195 0.19404,0.13588 0.0425,0.11642 0.12983,0.17756 0.19401,0.13589 0.0642,-0.0417 0.15152,0.0195 0.19403,0.13588 0.0426,0.11641 0.12985,0.17756 0.19404,0.13588 0.0642,-0.0416 0.15008,0.0156 0.19088,0.12727 0.0408,0.11168 0.1633,0.20304 0.27226,0.20304 0.10895,0 0.19808,0.0611 0.19808,0.13589 0,0.0747 0.0873,0.13588 0.19403,0.13588 0.10673,0 0.19402,0.0611 0.19402,0.13589 0,0.0747 0.0873,0.13588 0.19404,0.13588 0.1067,0 0.19403,0.0612 0.19403,0.13588 0,0.0747 0.0811,0.13588 0.18018,0.13588 0.0991,0 0.21512,0.0956 0.2578,0.21244 0.0426,0.11684 0.13011,0.17834 0.1943,0.13666 0.0643,-0.0417 0.15151,0.0195 0.19404,0.13588 0.0425,0.11641 0.12984,0.17756 0.19402,0.13588 0.0642,-0.0416 0.1501,0.0156 0.19089,0.12728 0.0408,0.11167 0.16331,0.20304 0.27226,0.20304 0.10895,0 0.19809,0.0611 0.19809,0.13588 0,0.0748 0.0873,0.13588 0.19402,0.13588 0.10672,0 0.19404,0.0611 0.19404,0.13589 0,0.0747 0.0873,0.13588 0.19402,0.13588 0.10672,0 0.19404,0.0612 0.19404,0.13588 0,0.0748 0.0811,0.13589 0.18019,0.13589 0.0991,0 0.21509,0.0956 0.25777,0.21243 0.0427,0.11684 0.13013,0.17834 0.19432,0.13667 0.0642,-0.0417 0.15151,0.0195 0.19402,0.13588 0.0426,0.11641 0.12986,0.17756 0.19405,0.13588 0.0642,-0.0416 0.15007,0.0156 0.19087,0.12727 0.0408,0.11168 0.16331,0.20304 0.27227,0.20304 0.10894,0 0.19808,0.0611 0.19808,0.13589 0,0.0747 0.0873,0.13588 0.19403,0.13588 0.10672,0 0.19402,0.0611 0.19402,0.13589 0,0.0747 0.0873,0.13588 0.19404,0.13588 0.1067,0 0.19402,0.0612 0.19402,0.13588 0,0.0747 0.0873,0.13588 0.19402,0.13588 0.10673,0 0.19404,0.0611 0.19404,0.13588 0,0.0748 0.0811,0.13588 0.18019,0.13588 0.0991,0 0.21512,0.0956 0.2578,0.21244 0.0426,0.11685 0.13662,0.17412 0.20877,0.12727 0.0721,-0.0468 0.1661,0.0105 0.20878,0.12727 0.0426,0.11684 0.15869,0.21244 0.2578,0.21244 0.0991,0 0.18019,0.0611 0.18019,0.13589 0,0.0747 0.0873,0.13588 0.19402,0.13588 0.10672,0 0.19403,0.0611 0.19403,0.13588 0,0.0748 0.0873,0.13588 0.19403,0.13588 0.10672,0 0.19404,0.0611 0.19404,0.13588 0,0.0747 0.0873,0.13589 0.19402,0.13589 0.10672,0 0.19401,0.0611 0.19401,0.13588 0,0.0747 0.0873,0.13588 0.19405,0.13588 0.1067,0 0.19402,0.0611 0.19402,0.13589 0,0.0747 0.0891,0.13588 0.19808,0.13588 0.10896,0 0.2316,0.0917 0.27255,0.20382 0.041,0.11211 0.15554,0.20382 0.25465,0.20382 0.0991,0 0.18018,0.0611 0.18018,0.13589 0,0.0747 0.0873,0.13588 0.19404,0.13588 0.10671,0 0.19402,0.0611 0.19402,0.13588 0,0.0747 0.0873,0.13589 0.19403,0.13589 0.10671,0 0.19403,0.0612 0.19403,0.13588 0,0.0747 0.0873,0.13589 0.19402,0.13589 0.10673,0 0.19404,0.0611 0.19404,0.13588 0,0.0747 0.0811,0.13588 0.18018,0.13588 0.0991,0 0.21513,0.0956 0.2578,0.21243 0.0426,0.11684 0.13663,0.17412 0.20878,0.12728 0.0721,-0.0468 0.1661,0.0105 0.20878,0.12726 0.0426,0.11684 0.15869,0.21244 0.25779,0.21244 0.0991,0 0.18019,0.0611 0.18019,0.13589 0,0.0747 0.0873,0.13588 0.19403,0.13588 0.10671,0 0.19403,0.0611 0.19403,0.13588 0,0.0747 0.0873,0.13588 0.19402,0.13588 0.10672,0 0.19404,0.0611 0.19404,0.13588 0,0.0748 0.0873,0.13589 0.19402,0.13589 0.10672,0 0.19402,0.0611 0.19402,0.13588 0,0.0747 0.0811,0.13588 0.18019,0.13588 0.0991,0 0.21512,0.0956 0.2578,0.21244 0.0426,0.11684 0.13012,0.17834 0.19431,0.13666 0.0642,-0.0416 0.15009,0.0156 0.19088,0.12728 0.0408,0.11167 0.16332,0.20304 0.27227,0.20304 0.10895,0 0.19808,0.0611 0.19808,0.13588 0,0.0748 0.0873,0.13588 0.19404,0.13588 0.10671,0 0.19402,0.0611 0.19402,0.13588 0,0.0747 0.0873,0.13589 0.19403,0.13589 0.10671,0 0.19403,0.0612 0.19403,0.13588 0,0.0747 0.0811,0.13588 0.18019,0.13588 0.0991,0 0.21511,0.0956 0.25779,0.21244 0.0426,0.11684 0.13012,0.17834 0.1943,0.13666 0.0642,-0.0416 0.15151,0.0195 0.19404,0.13589 0.0425,0.1164 0.12984,0.17755 0.19402,0.13588 0.0642,-0.0417 0.1501,0.0156 0.19089,0.12727 0.0408,0.11167 0.16331,0.20304 0.27226,0.20304 0.10894,0 0.19809,0.0611 0.19809,0.13589 0,0.0747 0.0873,0.13588 0.19402,0.13588 0.10672,0 0.19404,0.0611 0.19404,0.13588 0,0.0747 0.0873,0.13589 0.19402,0.13589 0.10672,0 0.19403,0.0611 0.19403,0.13588 0,0.0747 0.0811,0.13588 0.18019,0.13588 0.0991,0 0.21511,0.0956 0.25779,0.21244 0.0427,0.11684 0.13013,0.17833 0.19432,0.13666 0.0642,-0.0416 0.1515,0.0195 0.19402,0.13589 0.0425,0.1164 0.12984,0.17755 0.19403,0.13587 0.0642,-0.0417 0.15263,0.0226 0.19652,0.14269 0.0492,0.13474 0.17462,0.19241 0.32726,0.15048 0.18336,-0.0503 0.22755,-0.0135 0.17064,0.14231 -0.0585,0.16015 -0.0124,0.19255 0.19402,0.13588 0.19518,-0.0537 0.2516,-0.0217 0.20201,0.11405 -0.0399,0.10905 0.0129,0.18844 0.12519,0.18844 0.10671,0 0.22895,0.0956 0.27162,0.21244 0.0427,0.11684 0.13014,0.17834 0.19433,0.13666 0.0642,-0.0417 0.15151,0.0195 0.19402,0.13588 0.0426,0.11641 0.12983,0.17756 0.19402,0.13588 0.0642,-0.0416 0.1515,0.0195 0.19404,0.13589 0.0426,0.11641 0.12983,0.17755 0.19402,0.13588 0.0642,-0.0417 0.1501,0.0156 0.19089,0.12727 0.0408,0.11167 0.16331,0.20304 0.27226,0.20304 0.10894,0 0.19808,0.0611 0.19808,0.13588 0,0.0747 0.0873,0.13589 0.19403,0.13589 0.10672,0 0.19404,0.0611 0.19404,0.13588 0,0.0747 0.0811,0.13589 0.18018,0.13589 0.0991,0 0.21511,0.0956 0.2578,0.21243 0.0426,0.11684 0.13011,0.17834 0.1943,0.13666 0.0642,-0.0416 0.15151,0.0195 0.19404,0.13589 0.0425,0.1164 0.12984,0.17755 0.19403,0.13588 0.0642,-0.0416 0.15328,0.0244 0.19798,0.14672 0.0447,0.12237 0.11236,0.18984 0.15036,0.14992 0.038,-0.04 0.25034,0.10132 0.47186,0.31387 0.22153,0.21255 0.44492,0.35911 0.49641,0.32568 0.0515,-0.0335 0.12841,0.0345 0.17092,0.15087 0.0426,0.11642 0.12985,0.17756 0.19404,0.13589 0.0642,-0.0417 0.15151,0.0195 0.19403,0.13588 0.0426,0.11641 0.12984,0.17756 0.19403,0.13588 0.0642,-0.0416 0.15151,0.0195 0.19402,0.13589 0.0426,0.1164 0.12984,0.17755 0.19403,0.13587 0.0642,-0.0416 0.15329,0.0244 0.198,0.14673 0.0447,0.12237 0.11104,0.19121 0.14743,0.15297 0.0364,-0.0382 0.24468,0.10565 0.46285,0.31975 0.21816,0.21408 0.44286,0.35926 0.49932,0.32261 0.0564,-0.0366 0.13743,0.0286 0.17996,0.14501 0.0425,0.11641 0.12984,0.17756 0.19402,0.13588 0.0642,-0.0417 0.15151,0.0195 0.19404,0.13588 0.0426,0.11641 0.13594,0.1736 0.20758,0.12709 0.0716,-0.0465 0.13026,-0.0207 0.13026,0.0574 0,0.0781 0.22848,0.3008 0.50771,0.49491 0.27922,0.19412 0.5405,0.44276 0.5806,0.55252 0.0401,0.10976 0.0166,0.16303 -0.0522,0.11836 -0.17672,-0.11475 -0.91356,0.48665 -0.81626,0.66621 0.0442,0.0815 0.0342,0.10453 -0.0221,0.0511 -0.15145,-0.14363 -0.60782,0.15361 -0.50477,0.32877 0.0486,0.0826 0.0298,0.11209 -0.0418,0.0657 -0.16037,-0.10413 -1.02301,0.55253 -0.97389,0.74133 0.0196,0.0751 -0.0158,0.10323 -0.0786,0.0625 -0.15827,-0.10277 -1.46202,0.93889 -1.34506,1.07467 0.0521,0.0605 0.0252,0.068 -0.0596,0.017 -0.0887,-0.0534 -0.36133,0.12451 -0.6414,0.41871 -0.26789,0.28142 -0.44141,0.42045 -0.38558,0.30897 0.0558,-0.11149 -0.0193,-0.0583 -0.16707,0.11807 -0.14771,0.17644 -0.26857,0.27619 -0.26857,0.22167 0,-0.13943 -0.90847,0.57552 -1.27537,1.0037 -0.16789,0.19591 -0.26531,0.26448 -0.2165,0.15238 0.0488,-0.1121 -0.0321,-0.0594 -0.17985,0.11696 -0.1477,0.17644 -0.27049,0.26816 -0.27286,0.20383 -0.003,-0.0643 -0.11878,0.0274 -0.2587,0.20383 -0.13992,0.17643 -0.25634,0.26815 -0.2587,0.20382 -0.003,-0.0643 -0.11156,0.018 -0.24266,0.18299 -0.13108,0.16498 -0.26884,0.26791 -0.30613,0.22874 -0.0373,-0.0392 -0.28949,0.16165 -0.56043,0.44628 -0.27096,0.28462 -0.44696,0.42628 -0.39114,0.31479 0.0558,-0.11149 -0.0193,-0.0583 -0.16706,0.11809 -0.14771,0.17643 -0.27051,0.26815 -0.27287,0.20382 -0.003,-0.0643 -0.11878,0.0274 -0.2587,0.20382 -0.13993,0.17644 -0.25634,0.26816 -0.25871,0.20383 -0.003,-0.0643 -0.12534,0.0359 -0.27328,0.22274 -0.14794,0.18683 -0.30608,0.3397 -0.35143,0.3397 -0.0453,0 -0.0751,0.0715 -0.0662,0.15879 0.009,0.0873 -0.0958,0.13613 -0.23281,0.10841 -0.13696,-0.0277 -0.28145,0.0384 -0.3211,0.14695 -0.0396,0.10854 -0.15498,0.19733 -0.25632,0.19733 -0.10134,0 -0.21763,0.0914 -0.25842,0.20304 -0.0408,0.11168 -0.1223,0.1718 -0.18112,0.13361 -0.0588,-0.0382 -0.19935,0.0692 -0.31231,0.23858 -0.11296,0.1694 -0.24791,0.2963 -0.29989,0.28199 -0.052,-0.0143 -0.0878,0.0535 -0.0796,0.15064 0.008,0.0982 -0.10654,0.1701 -0.2587,0.1619 -0.17744,-0.01 -0.26827,0.0627 -0.25842,0.20561 0.0104,0.15076 -0.0606,0.19954 -0.22479,0.15443 -0.14499,-0.0399 -0.27169,0.0209 -0.32009,0.15332 -0.0441,0.12058 -0.16299,0.21924 -0.26433,0.21924 -0.10134,0 -0.21775,0.0917 -0.2587,0.20382 -0.0409,0.1121 -0.15265,0.20383 -0.24821,0.20383 -0.0956,0 -0.22556,0.0972 -0.28884,0.216 -0.0632,0.1188 -0.16805,0.2141 -0.2328,0.21177 -0.0648,-0.003 -0.11043,0.079 -0.10151,0.18059 0.01,0.11279 -0.0808,0.16517 -0.2328,0.13443 -0.13695,-0.0277 -0.28145,0.0384 -0.3211,0.14694 -0.0396,0.10853 -0.15499,0.19733 -0.25632,0.19733 -0.10134,0 -0.21776,0.0917 -0.25872,0.20382 -0.041,0.1121 -0.15735,0.20382 -0.2587,0.20382 -0.10133,0 -0.21774,0.0917 -0.2587,0.20383 -0.0409,0.1121 -0.16176,0.20382 -0.26848,0.20382 -0.11862,0 -0.16533,0.0786 -0.12017,0.2022 0.0406,0.11121 0.0323,0.19568 -0.0185,0.18773 -0.34635,-0.0542 -0.56484,0.0394 -0.50085,0.21463 0.0444,0.12162 0.01,0.17183 -0.0907,0.13133 -0.14328,-0.0577 -0.30178,0.0457 -0.95054,0.62042 -0.0859,0.0761 -0.22312,0.1384 -0.30488,0.1384 -0.0817,0 -0.11542,0.091 -0.0748,0.2022 0.0406,0.1112 0.0323,0.19568 -0.0185,0.18773 -0.32419,-0.0508 -0.56436,0.0407 -0.50846,0.19375 0.0368,0.10094 -0.0349,0.18389 -0.16828,0.19444 -0.316,0.025 -0.77912,0.45901 -0.68177,0.63892 0.0433,0.0801 0.0327,0.1019 -0.0236,0.0485 -0.15716,-0.14905 -0.60589,0.1552 -0.50401,0.34175 0.0489,0.0897 0.043,0.11933 -0.0134,0.0659 -0.15718,-0.14906 -0.60591,0.15519 -0.50403,0.34174 0.049,0.0897 0.043,0.11933 -0.0134,0.0659 -0.13225,-0.12543 -0.61435,0.14252 -0.52616,0.29243 0.0368,0.0625 -0.0343,0.10534 -0.15807,0.0951 -0.13795,-0.0114 -0.20828,0.0602 -0.18184,0.18519 0.0237,0.1121 0.002,0.16011 -0.0494,0.10669 -0.14523,-0.15255 -0.59435,0.15811 -0.49406,0.34175 0.0489,0.0897 0.043,0.11932 -0.0134,0.0659 -0.15718,-0.14906 -0.60591,0.15519 -0.50404,0.34174 0.049,0.0897 0.043,0.11932 -0.0134,0.0659 -0.14223,-0.13487 -0.61099,0.14825 -0.51516,0.31113 0.0429,0.0728 0.0299,0.12368 -0.0287,0.11298 -0.28426,-0.0519 -0.43722,0.0274 -0.35222,0.18257 0.0512,0.0934 0.0469,0.12615 -0.009,0.0727 -0.15718,-0.14905 -0.60591,0.1552 -0.50403,0.34175 0.0489,0.0897 0.043,0.11932 -0.0134,0.0659 -0.15718,-0.14905 -0.60591,0.1552 -0.50403,0.34174 0.0489,0.0897 0.043,0.11933 -0.0134,0.0659 -0.15717,-0.14905 -0.60589,0.1552 -0.50402,0.34175 0.0489,0.0897 0.043,0.11933 -0.0134,0.0659 -0.13226,-0.12542 -0.61436,0.14253 -0.52617,0.29243 0.0368,0.0625 -0.0343,0.10534 -0.15806,0.0951 -0.13794,-0.0114 -0.20829,0.0602 -0.18185,0.18519 0.0237,0.11211 0.002,0.16012 -0.0494,0.10669 -0.14523,-0.15255 -0.59436,0.15811 -0.49407,0.34175 0.0489,0.0897 0.043,0.11933 -0.0134,0.0659 -0.15717,-0.14906 -0.6059,0.1552 -0.50402,0.34174 0.0489,0.0897 0.043,0.11933 -0.0134,0.0659 -0.14222,-0.13487 -0.61099,0.14825 -0.51515,0.31114 0.0429,0.0728 0.0299,0.12367 -0.0288,0.11297 -0.28426,-0.0519 -0.43723,0.0274 -0.35223,0.18257 0.0512,0.0934 0.0469,0.12615 -0.009,0.0727 -0.15717,-0.14905 -0.6059,0.1552 -0.50402,0.34175 0.0489,0.0897 0.043,0.11932 -0.0134,0.0659 -0.15718,-0.14906 -0.60591,0.15519 -0.50403,0.34174 0.049,0.0897 0.043,0.11932 -0.0134,0.0659 -0.14223,-0.13487 -0.61098,0.14825 -0.51516,0.31114 0.0429,0.0728 0.0299,0.12368 -0.0287,0.11298 -0.28427,-0.0519 -0.43723,0.0274 -0.35223,0.18257 0.0511,0.0934 0.0469,0.12615 -0.009,0.0727 -0.15717,-0.14906 -0.60589,0.15519 -0.50401,0.34174 0.049,0.0897 0.043,0.11933 -0.0134,0.0659 -0.15718,-0.14906 -0.60591,0.15519 -0.50403,0.34174 0.0489,0.0897 0.043,0.11933 -0.0134,0.0659 -0.15716,-0.14905 -0.60589,0.1552 -0.50401,0.34175 0.0489,0.0897 0.043,0.11933 -0.0134,0.0659 -0.14222,-0.13487 -0.61099,0.14825 -0.51515,0.31114 0.0429,0.0728 0.0299,0.12368 -0.0287,0.11297 -0.28427,-0.0519 -0.43723,0.0274 -0.35224,0.18258 0.0512,0.0934 0.047,0.12614 -0.009,0.0727 -0.15718,-0.14906 -0.60591,0.15519 -0.50403,0.34174 0.0489,0.0897 0.043,0.11932 -0.0134,0.0659 -0.15717,-0.14906 -0.60589,0.1552 -0.50401,0.34174 0.0489,0.0897 0.043,0.11933 -0.0134,0.0659 -0.14221,-0.13487 -0.61098,0.14825 -0.51514,0.31114 0.0429,0.0728 0.0299,0.12367 -0.0288,0.11298 -0.28427,-0.0519 -0.43723,0.0274 -0.35222,0.18258 0.0512,0.0934 0.0469,0.12614 -0.009,0.0727 -0.15719,-0.14906 -0.60592,0.1552 -0.50404,0.34175 0.0489,0.0897 0.043,0.11933 -0.0134,0.0659 -0.15717,-0.14906 -0.60588,0.15519 -0.50402,0.34174 0.0489,0.0897 0.043,0.11933 -0.0134,0.0659 -0.15717,-0.14906 -0.6059,0.15519 -0.50403,0.34174 0.0489,0.0897 0.043,0.11933 -0.0134,0.0659 -0.13961,-0.13239 -0.61187,0.14675 -0.51804,0.30621 0.0413,0.0702 -0.008,0.0941 -0.10906,0.0533 -0.10124,-0.0408 -0.27472,0.021 -0.38553,0.13743 -0.1108,0.11641 -0.26093,0.21164 -0.33362,0.21164 -0.0727,0 -0.17872,0.0837 -0.23561,0.18603 -0.0569,0.10231 -0.22486,0.22554 -0.37326,0.27384 l -0.269816,0.0878 z"
       id="path1124"
       inkscape:connector-curvature="0" />
  </g>
</svg>
