<?xml version="1.0" encoding="UTF-8" standalone="no"?>
<!-- Created with Inkscape (http://www.inkscape.org/) -->

<svg
   xmlns:dc="http://purl.org/dc/elements/1.1/"
   xmlns:cc="http://creativecommons.org/ns#"
   xmlns:rdf="http://www.w3.org/1999/02/22-rdf-syntax-ns#"
   xmlns:svg="http://www.w3.org/2000/svg"
   xmlns="http://www.w3.org/2000/svg"
   xmlns:xlink="http://www.w3.org/1999/xlink"
   xmlns:sodipodi="http://sodipodi.sourceforge.net/DTD/sodipodi-0.dtd"
   xmlns:inkscape="http://www.inkscape.org/namespaces/inkscape"
   width="297mm"
   height="210mm"
   viewBox="0 0 297 210"
   version="1.1"
   id="svg8"
   inkscape:version="0.92.2 (5c3e80d, 2017-08-06)"
   sodipodi:docname="twitter.svg">
  <defs
     id="defs2">
    <linearGradient
       inkscape:collect="always"
       id="linearGradient992">
      <stop
         style="stop-color:#000000;stop-opacity:1;"
         offset="0"
         id="stop988" />
      <stop
         style="stop-color:#000000;stop-opacity:0;"
         offset="1"
         id="stop990" />
    </linearGradient>
    <linearGradient
       inkscape:collect="always"
       xlink:href="#linearGradient992"
       id="linearGradient994"
       x1="40.340225"
       y1="210.205"
       x2="178.3591"
       y2="210.205"
       gradientUnits="userSpaceOnUse"
       gradientTransform="matrix(1.2573987,0,0,1.0777447,28.955278,-30.943094)" />
  </defs>
  <sodipodi:namedview
     id="base"
     pagecolor="#ffffff"
     bordercolor="#666666"
     borderopacity="1.0"
     inkscape:pageopacity="0.0"
     inkscape:pageshadow="2"
     inkscape:zoom="0.53740115"
     inkscape:cx="625.25487"
     inkscape:cy="381.60625"
     inkscape:document-units="mm"
     inkscape:current-layer="layer1"
     showgrid="false"
     inkscape:window-width="1366"
     inkscape:window-height="705"
     inkscape:window-x="-8"
     inkscape:window-y="-8"
     inkscape:window-maximized="1" />
  <metadata
     id="metadata5">
    <rdf:RDF>
      <cc:Work
         rdf:about="">
        <dc:format>image/svg+xml</dc:format>
        <dc:type
           rdf:resource="http://purl.org/dc/dcmitype/StillImage" />
        <dc:title></dc:title>
      </cc:Work>
    </rdf:RDF>
  </metadata>
  <g
     inkscape:label="Capa 1"
     inkscape:groupmode="layer"
     id="layer1"
     transform="translate(0,-87)">
    <rect
       style="opacity:1;fill:#5599ff;fill-opacity:1;fill-rule:nonzero;stroke:none;stroke-width:2.86500001;stroke-linecap:butt;stroke-linejoin:round;stroke-miterlimit:4;stroke-dasharray:none;stroke-dashoffset:0;stroke-opacity:1;paint-order:stroke fill markers"
       id="rect841"
       width="209.24245"
       height="143.32706"
       x="43.838631"
       y="111.3548"
       ry="23.724173" />
    <path
       style="fill:url(#linearGradient994);fill-opacity:1;stroke:none;stroke-width:0.26458332px;stroke-linecap:butt;stroke-linejoin:miter;stroke-opacity:1"
       d="m 214.056,137.65642 39.00115,26.53076 -0.30954,70.30654 c -4.40354,14.10962 -15.51723,21.25699 -35.59629,19.10216 C 171.26214,243.95637 95.156549,234.31684 79.718683,224.67734 l 45.191817,1.32653 z"
       id="path986"
       inkscape:connector-curvature="0"
       sodipodi:nodetypes="ccccccc" />
    <path
       style="opacity:1;fill:#ffffff;fill-opacity:1;fill-rule:nonzero;stroke:none;stroke-width:2.86500001;stroke-linecap:butt;stroke-linejoin:round;stroke-miterlimit:4;stroke-dasharray:none;stroke-dashoffset:0;stroke-opacity:1;paint-order:stroke fill markers"
       d="m 106.23522,233.1327 c -3.40486,-0.52 -8.419301,-1.60736 -11.14319,-2.41636 -6.380806,-1.89512 -15.167115,-5.36369 -15.167115,-5.98752 0,-0.26634 2.855442,-0.63748 6.345427,-0.82475 6.87396,-0.36884 15.292468,-2.09076 21.156648,-4.32736 4.61028,-1.75837 12.39628,-6.0442 11.84257,-6.5188 -0.22882,-0.19612 -2.14083,-0.65789 -4.24892,-1.02614 -8.34358,-1.45751 -15.979343,-6.15042 -20.149372,-12.38372 -1.063892,-1.5903 -1.936964,-3.07054 -1.940158,-3.28941 -0.0032,-0.21889 2.29247,-0.40162 5.101484,-0.40609 4.501396,-0.008 7.501036,-0.5578 6.637026,-1.21834 -0.16038,-0.12262 -2.65953,-1.16907 -5.553662,-2.32545 -8.697791,-3.4753 -14.367412,-9.67999 -16.380363,-17.92626 -0.494612,-2.02625 -0.817903,-3.75382 -0.71843,-3.83909 0.09947,-0.0853 1.748126,0.30715 3.663662,0.87203 3.957446,1.16703 9.10167,1.93911 9.10167,1.36604 0,-0.21077 -1.483636,-1.65489 -3.296968,-3.20913 -5.57895,-4.78185 -9.084351,-11.75012 -9.084351,-18.05847 0,-3.09752 1.94532,-9.98911 3.117913,-11.04569 0.299819,-0.27017 2.524374,1.25595 5.175612,3.55061 13.755147,11.90518 32.822587,19.76885 51.826397,21.37388 l 4.26295,0.36004 v -4.73261 c 0,-7.84633 2.1427,-13.06212 7.33146,-17.84636 3.63522,-3.3518 8.10128,-5.82781 13.16793,-7.30037 3.30901,-0.96173 4.91268,-1.108 9.83483,-0.89707 6.68104,0.2863 10.49909,1.47564 16.69397,5.20024 3.63343,2.18455 3.66695,2.19246 6.82857,1.61129 1.74747,-0.32122 5.53042,-1.41897 8.40656,-2.43945 2.87614,-1.02047 5.38277,-1.8554 5.57028,-1.8554 1.08691,0 -3.7181,6.08222 -7.05428,8.92936 -2.16406,1.84683 -3.75317,3.51345 -3.53134,3.70359 0.22183,0.19014 3.3603,-0.3035 6.97437,-1.09698 3.61408,-0.79347 6.69236,-1.3387 6.84063,-1.21162 0.14826,0.12708 -2.58104,2.74237 -6.06512,5.81174 l -6.33468,5.58069 -0.83975,7.23922 c -1.32216,11.39766 -4.277,20.48166 -9.60498,29.52831 -9.52311,16.16976 -26.68245,28.89326 -46.6708,34.60602 -11.95884,3.41789 -29.19,4.42048 -42.09648,2.44938 z"
       id="path984"
       inkscape:connector-curvature="0" />
    <text
       xml:space="preserve"
       style="font-style:normal;font-variant:normal;font-weight:normal;font-stretch:normal;font-size:13.67209721px;line-height:1.25;font-family:Castellar;-inkscape-font-specification:Castellar;letter-spacing:0px;word-spacing:0px;fill:#000000;fill-opacity:1;stroke:none;stroke-width:0.26458332"
       x="102.87295"
       y="278.52328"
       id="text998"
       transform="scale(0.99409438,1.0059407)"><tspan
         sodipodi:role="line"
         id="tspan996"
         x="102.87295"
         y="278.52328"
         style="font-style:normal;font-variant:normal;font-weight:normal;font-stretch:normal;font-size:29.16714096px;font-family:'Arial Rounded MT Bold';-inkscape-font-specification:'Arial Rounded MT Bold, ';stroke-width:0.26458332">Twitter</tspan></text>
  </g>
</svg>
